# xmcd
#
# Track frame offsets:
#	150
#	14962
#	25943
#	37288
#	53633
#	66204
#	83502
#	98400
#	113556
#	128987
#	144770
#
# Disc length: 2220 seconds
#
# Revision: 1
# Processed by: cddbd v1.5.2PL0 Copyright (c) Steve Scherf et al.
# Submitted via: audiograbber 1.83.01
#
DISCID=8b08aa0b
DTITLE=Hate Gallery - Compassion Fatigue
DYEAR=2008
DGENRE=Rock
TTITLE0=The idiots
TTITLE1=Truth about you
TTITLE2=God things come to those who hate
TTITLE3=New god
TTITLE4=Outsiders (Hit you like a rocket)
TTITLE5=Slave new world
TTITLE6=Exit wound
TTITLE7=Have it your own way
TTITLE8=Shedding skin
TTITLE9=You don't know
TTITLE10=We're not receiving
EXTD=
EXTT0=
EXTT1=
EXTT2=
EXTT3=
EXTT4=
EXTT5=
EXTT6=
EXTT7=
EXTT8=
EXTT9=
EXTT10=
PLAYORDER=
